# xmcd
#
# Track frame offsets:
#	150
#	20712
#	44355
#	73149
#	95029
#	116760
#	137744
#	159098
#	181866
#
# Disc length: 2625 seconds
#
# Revision: 1
# Processed by: cddbd v1.5.2PL0 Copyright (c) Steve Scherf et al.
# Submitted via: EZCDAudioConverter 8.0.2.1
#
DISCID=7a0a3f09
DTITLE=Minh Quân - Bước Phiêu Bồng
DYEAR=2002
DGENRE=
TTITLE0=Minh Quân - Tự khúc ngày sinh
TTITLE1=Minh Quân - Tình yêu mong đợi
TTITLE2=Minh Quân, Mỹ Linh - Xin đừng cách xa
TTITLE3=Minh Quân - Dáng xưa
TTITLE4=Minh Quân - Còn đó mưa rơi
TTITLE5=Minh Quân - Thuở học trò
TTITLE6=Minh Quân, Vân Quỳnh - It's Hard To Say Goodbye
TTITLE7=Minh Quân - Đêm Vắng
TTITLE8=Minh Quân - Bước Phiêu Bồng
EXTD=
EXTT0=
EXTT1=
EXTT2=
EXTT3=
EXTT4=
EXTT5=
EXTT6=
EXTT7=
EXTT8=
PLAYORDER=
